<svg width="800" height="600" xmlns="http://www.w3.org/2000/svg">
 <!-- Created with Method Draw - http://github.com/duopixel/Method-Draw/ -->

 <g>
  <title>background</title>
  <rect fill="#fff" id="canvas_background" height="602" width="802" y="-1" x="-1"/>
  <g display="none" overflow="visible" y="0" x="0" height="100%" width="100%" id="canvasGrid">
   <rect fill="url(#gridpattern)" stroke-width="0" y="0" x="0" height="100%" width="100%"/>
  </g>
 </g>
 <g>
  <title>Layer 1</title>
  <g stroke="null" id="svg_21">
   <path stroke="null" fill="#066526" id="svg_5" d="m371.02151,375.33018l-65.02151,-65.02238l28.90039,-28.89951l36.12112,36.12112l92.85959,-92.85959l28.89951,28.90039l-121.7591,121.75997z"/>
   <g stroke="null" transform="matrix(0.8721748853227814,0,0,0.8721748853227814,0,0) " id="svg_6"/>
   <g stroke="null" transform="matrix(0.8721748853227814,0,0,0.8721748853227814,0,0) " id="svg_7"/>
   <g stroke="null" transform="matrix(0.8721748853227814,0,0,0.8721748853227814,0,0) " id="svg_8"/>
   <g stroke="null" transform="matrix(0.8721748853227814,0,0,0.8721748853227814,0,0) " id="svg_9"/>
   <g stroke="null" transform="matrix(0.8721748853227814,0,0,0.8721748853227814,0,0) " id="svg_10"/>
   <g stroke="null" transform="matrix(0.8721748853227814,0,0,0.8721748853227814,0,0) " id="svg_11"/>
   <g stroke="null" transform="matrix(0.8721748853227814,0,0,0.8721748853227814,0,0) " id="svg_12"/>
   <g stroke="null" transform="matrix(0.8721748853227814,0,0,0.8721748853227814,0,0) " id="svg_13"/>
   <g stroke="null" transform="matrix(0.8721748853227814,0,0,0.8721748853227814,0,0) " id="svg_14"/>
   <g stroke="null" transform="matrix(0.8721748853227814,0,0,0.8721748853227814,0,0) " id="svg_15"/>
   <g stroke="null" transform="matrix(0.8721748853227814,0,0,0.8721748853227814,0,0) " id="svg_16"/>
   <g stroke="null" transform="matrix(0.8721748853227814,0,0,0.8721748853227814,0,0) " id="svg_17"/>
   <g stroke="null" transform="matrix(0.8721748853227814,0,0,0.8721748853227814,0,0) " id="svg_18"/>
   <g stroke="null" transform="matrix(0.8721748853227814,0,0,0.8721748853227814,0,0) " id="svg_19"/>
   <g stroke="null" transform="matrix(0.8721748853227814,0,0,0.8721748853227814,0,0) " id="svg_20"/>
  </g>
 </g>
</svg>